<svg width="386" height="420" viewBox="0 0 386 420" fill="none" xmlns="http://www.w3.org/2000/svg">
<path d="M186.354 205.11C185.967 208.913 181.623 210.888 178.495 208.683L133.86 177.225C130.701 174.999 131.15 170.192 134.665 168.594L184.816 145.795C188.331 144.197 192.259 147.014 191.869 150.853L186.354 205.11Z" fill="#CFCDCD"/>
<path d="M149.426 128.493C149.04 132.295 144.696 134.27 141.568 132.065L96.932 100.607C93.7738 98.3811 94.2224 93.5739 97.7374 91.9759L147.888 69.1768C151.403 67.5789 155.332 70.3962 154.941 74.2352L149.426 128.493Z" fill="#CFCDCD"/>
<path d="M80.1217 161.93C79.7352 165.732 75.3913 167.707 72.2631 165.503L27.6274 134.044C24.4692 131.818 24.9178 127.011 28.4328 125.413L78.5837 102.614C82.0987 101.016 86.0271 103.833 85.6369 107.672L80.1217 161.93Z" fill="#CFCDCD"/>
<path d="M185.802 391.622C185.415 395.424 181.072 397.399 177.943 395.194L133.308 363.736C130.149 361.51 130.598 356.703 134.113 355.105L184.264 332.306C187.779 330.708 191.707 333.525 191.317 337.364L185.802 391.622Z" fill="#CFCDCD"/>
<path d="M151.938 316.149C151.552 319.951 147.208 321.926 144.08 319.721L99.4442 288.263C96.286 286.037 96.7346 281.23 100.25 279.632L150.401 256.833C153.916 255.235 157.844 258.052 157.454 261.891L151.938 316.149Z" fill="#CFCDCD"/>
<path d="M117.049 238.548C116.663 242.35 112.319 244.325 109.191 242.12L64.555 210.662C61.3968 208.436 61.8454 203.629 65.3604 202.031L115.511 179.232C119.026 177.634 122.955 180.451 122.564 184.29L117.049 238.548Z" fill="#CFCDCD"/>
<path d="M336.641 318.847C336.255 322.649 331.911 324.624 328.783 322.419L284.147 290.961C280.989 288.735 281.437 283.928 284.952 282.33L335.103 259.531C338.618 257.933 342.547 260.75 342.156 264.589L336.641 318.847Z" fill="#CFCDCD"/>
<path d="M267.271 248.801C263.972 250.333 260.215 247.727 260.299 243.964L261.52 189.293C261.609 185.303 265.9 183.032 269.123 185.269L315.849 217.685C319.073 219.921 318.716 224.922 315.218 226.546L267.271 248.801Z" fill="#9FBB88"/>
<path d="M259.183 356.218C258.797 360.02 254.453 361.995 251.325 359.79L206.689 328.332C203.531 326.106 203.979 321.299 207.494 319.701L257.645 296.902C261.16 295.304 265.089 298.121 264.698 301.96L259.183 356.218Z" fill="#CFCDCD"/>
<path d="M223.281 281.728C222.895 285.531 218.551 287.505 215.423 285.301L170.787 253.842C167.629 251.616 168.078 246.809 171.593 245.211L221.743 222.412C225.258 220.814 229.187 223.632 228.797 227.471L223.281 281.728Z" fill="#CFCDCD"/>
</svg>
